<svg width="200" height="40" viewBox="0 0 200 40" fill="none" xmlns="http://www.w3.org/2000/svg"><path d="M15.783 1.504a4.474 4.474 0 0 1 4.435 0l12.85 7.346a4.384 4.384 0 0 1 2.219 3.804v14.692c0 1.57-.846 3.019-2.218 3.803l-12.85 7.347a4.474 4.474 0 0 1-4.436 0l-12.85-7.347a4.384 4.384 0 0 1-2.219-3.803V12.654c0-1.57.846-3.019 2.218-3.804l12.85-7.346Z" fill="#141C24"/><path d="M15.783 1.504a4.474 4.474 0 0 1 4.435 0l12.85 7.346a4.384 4.384 0 0 1 2.219 3.804v14.692c0 1.57-.846 3.019-2.218 3.803l-12.85 7.347a4.474 4.474 0 0 1-4.436 0l-12.85-7.347a4.384 4.384 0 0 1-2.219-3.803V12.654c0-1.57.846-3.019 2.218-3.804l12.85-7.346Z" fill="url(#a)" fill-opacity=".4"/><path fill-rule="evenodd" clip-rule="evenodd" d="M15.4.697a5.194 5.194 0 0 1 5.2 0l12.8 7.398a5.205 5.205 0 0 1 2.6 4.507v14.796c0 1.86-.99 3.577-2.6 4.507l-12.8 7.398c-1.61.93-3.59.93-5.2 0L2.6 31.905A5.204 5.204 0 0 1 0 27.398V12.602c0-1.86.99-3.577 2.6-4.507L15.4.697Zm4.42 1.352a3.636 3.636 0 0 0-3.64 0L3.38 9.447a3.643 3.643 0 0 0-1.82 3.155v14.796c0 1.302.694 2.504 1.82 3.155l12.8 7.397c1.126.65 2.514.65 3.64 0l12.801-7.398a3.643 3.643 0 0 0 1.82-3.155V12.602a3.643 3.643 0 0 0-1.82-3.155L19.819 2.05Z" fill="#97A1AF"/><path d="M28.896 16.666a2 2 0 0 0-.735-2.735 2.008 2.008 0 0 0-2.74.733l-5.953 10.29a2 2 0 0 0 .734 2.735c.96.553 2.187.225 2.74-.733l5.954-10.29ZM13.55 21.99l2.755-4.76a2.008 2.008 0 0 1 2.74-.734 2 2 0 0 1 .735 2.736l-4.47 7.728a2.008 2.008 0 0 1-3.468.012l-.031.017-5.97-10.32a2 2 0 0 1 .734-2.734 2.008 2.008 0 0 1 2.74.733l4.237 7.322Z" fill="#fff"/><path d="m50.438 27.826-4.438-16h2.54l3.116 12.391h.149l3.242-12.39h2.516l3.242 12.398h.148l3.11-12.399h2.546l-4.445 16h-2.43l-3.367-11.984h-.125l-3.367 11.984h-2.438Zm20.521-7.125v7.125h-2.336v-16h2.305v5.953h.148a3.449 3.449 0 0 1 1.29-1.538c.577-.38 1.333-.57 2.265-.57.823 0 1.541.168 2.156.507.62.338 1.1.844 1.438 1.516.343.666.515 1.5.515 2.5v7.632h-2.336v-7.351c0-.88-.226-1.563-.68-2.047-.453-.49-1.083-.734-1.89-.734-.552 0-1.047.117-1.484.351a2.534 2.534 0 0 0-1.024 1.031c-.245.448-.367.99-.367 1.625Zm10.898 7.125v-12h2.336v12h-2.336Zm1.18-13.851a1.49 1.49 0 0 1-1.047-.406 1.321 1.321 0 0 1-.43-.985c0-.385.144-.713.43-.984a1.47 1.47 0 0 1 1.047-.414c.406 0 .753.138 1.04.414.29.27.437.599.437.984 0 .38-.146.709-.438.985a1.46 1.46 0 0 1-1.039.406Zm9.901 1.851v1.875h-6.555v-1.875h6.555Zm-4.797-2.875h2.336v11.352c0 .453.067.794.203 1.023.135.224.31.378.523.461a2.1 2.1 0 0 0 .711.117c.188 0 .352-.012.492-.038.14-.027.25-.047.328-.063l.422 1.93a3.94 3.94 0 0 1-.578.156c-.25.057-.562.088-.937.094a4.112 4.112 0 0 1-1.72-.329 2.947 2.947 0 0 1-1.288-1.062c-.328-.48-.492-1.08-.492-1.805V12.951Zm12.423 15.118c-1.182 0-2.2-.253-3.054-.758-.85-.51-1.505-1.227-1.969-2.149-.458-.927-.688-2.013-.688-3.258 0-1.229.23-2.312.688-3.25.464-.937 1.11-1.669 1.938-2.195.833-.526 1.807-.789 2.921-.789a5.88 5.88 0 0 1 1.969.336 4.762 4.762 0 0 1 1.711 1.055c.505.479.904 1.101 1.195 1.867.292.76.438 1.685.438 2.773v.828h-9.54v-1.75h7.251c0-.614-.125-1.158-.375-1.632a2.838 2.838 0 0 0-1.055-1.133c-.448-.276-.974-.414-1.578-.414-.656 0-1.23.161-1.719.484a3.25 3.25 0 0 0-1.125 1.25c-.26.51-.39 1.065-.39 1.664v1.367c0 .803.14 1.485.421 2.047.287.563.685.992 1.196 1.29.51.291 1.107.437 1.789.437.443 0 .846-.063 1.211-.188.364-.13.68-.323.945-.578a2.51 2.51 0 0 0 .61-.945l2.21.398a3.996 3.996 0 0 1-.953 1.711c-.453.485-1.023.862-1.711 1.133-.682.266-1.461.399-2.336.399Zm16.733-9.313-2.117.375a2.512 2.512 0 0 0-.422-.773 2.093 2.093 0 0 0-.766-.602c-.323-.156-.726-.234-1.211-.234-.661 0-1.213.148-1.656.445-.443.292-.664.67-.664 1.133 0 .4.148.724.445.969.297.244.776.445 1.438.601l1.906.438c1.104.255 1.927.648 2.469 1.18.541.53.812 1.22.812 2.07 0 .718-.208 1.359-.625 1.921-.411.558-.987.995-1.726 1.313-.735.318-1.586.477-2.555.477-1.344 0-2.44-.287-3.289-.86-.849-.578-1.37-1.398-1.563-2.46l2.258-.345c.141.59.43 1.034.867 1.337.438.296 1.008.445 1.711.445.766 0 1.378-.16 1.836-.477.459-.323.688-.716.688-1.18 0-.375-.141-.69-.422-.945-.276-.255-.701-.448-1.273-.578l-2.032-.445c-1.12-.255-1.948-.662-2.484-1.219-.531-.557-.797-1.263-.797-2.117 0-.709.198-1.328.594-1.86.396-.53.942-.945 1.64-1.242.698-.302 1.498-.453 2.399-.453 1.297 0 2.318.281 3.062.844.745.557 1.237 1.305 1.477 2.242Zm2.803 13.57v-16.5h2.281v1.946h.195c.136-.25.331-.54.586-.867.255-.329.609-.615 1.063-.86.453-.25 1.052-.375 1.796-.375.969 0 1.834.245 2.594.734.761.49 1.357 1.196 1.789 2.118.438.922.657 2.031.657 3.328 0 1.297-.217 2.409-.649 3.336-.432.922-1.026 1.633-1.781 2.133-.755.494-1.617.742-2.586.742-.729 0-1.326-.123-1.789-.367-.458-.245-.818-.532-1.078-.86a6.492 6.492 0 0 1-.602-.875h-.14v6.367H120.1Zm2.289-10.5c0 .844.122 1.584.367 2.22.245.635.599 1.132 1.062 1.491.464.355 1.032.532 1.703.532.698 0 1.282-.185 1.75-.555.469-.375.823-.883 1.063-1.523.245-.641.367-1.363.367-2.165 0-.791-.12-1.502-.359-2.132-.235-.63-.589-1.128-1.063-1.493-.468-.364-1.054-.547-1.758-.547-.677 0-1.25.175-1.718.524-.464.349-.815.836-1.055 1.46-.24.626-.359 1.355-.359 2.188Zm14.781 6.266c-.76 0-1.448-.14-2.063-.422a3.483 3.483 0 0 1-1.461-1.242c-.354-.542-.531-1.206-.531-1.992 0-.677.13-1.235.391-1.672.26-.438.612-.784 1.055-1.04a5.492 5.492 0 0 1 1.484-.577c.547-.13 1.104-.23 1.672-.297l1.75-.203c.448-.058.773-.149.976-.274.203-.125.305-.328.305-.61v-.054c0-.682-.193-1.21-.578-1.586-.38-.375-.948-.562-1.703-.562-.787 0-1.406.174-1.86.523-.447.344-.757.727-.929 1.149l-2.196-.5c.261-.73.641-1.318 1.141-1.766a4.626 4.626 0 0 1 1.742-.984 6.802 6.802 0 0 1 2.071-.313c.479 0 .987.057 1.523.172a4.46 4.46 0 0 1 1.516.61c.474.296.862.72 1.164 1.273.302.547.453 1.258.453 2.133v7.968h-2.281v-1.64h-.094a3.327 3.327 0 0 1-.68.89c-.302.292-.69.534-1.164.727-.474.193-1.042.289-1.703.289Zm.508-1.875c.646 0 1.198-.128 1.656-.383a2.68 2.68 0 0 0 1.055-1 2.6 2.6 0 0 0 .367-1.336v-1.547c-.083.084-.245.162-.485.235a7.508 7.508 0 0 1-.804.18l-.883.132-.719.094a5.793 5.793 0 0 0-1.242.29 2.12 2.12 0 0 0-.891.585c-.218.25-.328.583-.328 1 0 .578.214 1.016.641 1.313.427.291.971.437 1.633.437Zm13.58 1.852c-1.162 0-2.162-.263-3-.79-.834-.53-1.474-1.262-1.922-2.195-.448-.932-.672-2-.672-3.203 0-1.219.229-2.294.688-3.227.458-.937 1.104-1.669 1.937-2.195.833-.526 1.815-.789 2.945-.789.912 0 1.724.17 2.438.508a4.37 4.37 0 0 1 1.726 1.406c.443.604.706 1.31.79 2.117h-2.274a2.723 2.723 0 0 0-.859-1.453c-.443-.406-1.037-.61-1.782-.61-.651 0-1.221.173-1.711.516-.484.34-.861.823-1.132 1.454-.271.625-.407 1.364-.407 2.218 0 .875.133 1.63.399 2.266.266.636.641 1.128 1.125 1.477.489.349 1.065.523 1.726.523a2.9 2.9 0 0 0 1.204-.242 2.47 2.47 0 0 0 .914-.711 2.67 2.67 0 0 0 .523-1.11h2.274a4.423 4.423 0 0 1-.758 2.079 4.36 4.36 0 0 1-1.696 1.437c-.703.35-1.528.524-2.476.524Zm12.599 0c-1.182 0-2.2-.253-3.054-.758-.849-.51-1.505-1.227-1.969-2.149-.458-.927-.688-2.013-.688-3.258 0-1.229.23-2.312.688-3.25.464-.937 1.109-1.669 1.937-2.195.834-.526 1.808-.789 2.922-.789a5.88 5.88 0 0 1 1.969.336 4.762 4.762 0 0 1 1.711 1.055c.505.479.904 1.101 1.195 1.867.292.76.438 1.685.438 2.773v.828h-9.539v-1.75h7.25c0-.614-.125-1.158-.375-1.632a2.838 2.838 0 0 0-1.055-1.133c-.448-.276-.974-.414-1.578-.414-.656 0-1.229.161-1.719.484a3.257 3.257 0 0 0-1.125 1.25c-.26.51-.39 1.065-.39 1.664v1.367c0 .803.14 1.485.421 2.047.287.563.685.992 1.196 1.29.51.291 1.107.437 1.789.437.443 0 .846-.063 1.211-.188a2.499 2.499 0 0 0 1.554-1.523l2.211.398a3.996 3.996 0 0 1-.953 1.711c-.453.485-1.023.862-1.711 1.133-.682.266-1.461.399-2.336.399Zm24.039-16.243h2.422V22.35c0 1.12-.263 2.112-.789 2.976-.526.86-1.265 1.537-2.218 2.032-.954.49-2.071.734-3.352.734-1.276 0-2.391-.245-3.344-.734-.953-.495-1.692-1.172-2.219-2.032-.526-.864-.789-1.856-.789-2.976V11.826h2.414v10.328c0 .724.159 1.368.477 1.93a3.464 3.464 0 0 0 1.367 1.328c.589.318 1.287.477 2.094.477.812 0 1.513-.159 2.102-.477a3.348 3.348 0 0 0 1.359-1.328c.318-.562.476-1.206.476-1.93V11.826Zm8.346 0v16h-2.414v-16h2.414Z" fill="#141C24"/><defs><radialGradient id="a" cx="0" cy="0" r="1" gradientUnits="userSpaceOnUse" gradientTransform="matrix(0 19.7634 -19.9603 0 18 20)"><stop offset="0" stop-color="#122136"/><stop offset=".479" stop-color="#60B2FD" stop-opacity=".19"/><stop offset="1" stop-color="#2D9DFF" stop-opacity=".06"/></radialGradient></defs></svg>